HIERARCHY
ROOT Junyuan_V1:Solving:Hips
{
	OFFSET 0.000000 0.000000 0.000000
	CHANNELS 6 Xposition Yposition Zposition Xrotation Yrotation Zrotation
	JOINT Junyuan_V1:Solving:Spine
	{
		OFFSET 0.000000 -11.180205 2.228564
		CHANNELS 6 Xposition Yposition Zposition Xrotation Yrotation Zrotation
		JOINT Junyuan_V1:Solving:Spine1
		{
			OFFSET 0.000000 -8.682996 1.531049
			CHANNELS 6 Xposition Yposition Zposition Xrotation Yrotation Zrotation
			JOINT Junyuan_V1:Solving:Spine2
			{
				OFFSET 0.000000 -8.783394 0.768450
				CHANNELS 6 Xposition Yposition Zposition Xrotation Yrotation Zrotation
				JOINT Junyuan_V1:Solving:Spine3
				{
					OFFSET 0.000000 -8.816944 0.000000
					CHANNELS 6 Xposition Yposition Zposition Xrotation Yrotation Zrotation
					JOINT Junyuan_V1:Solving:Neck
					{
						OFFSET 0.000000 -11.336071 -1.133605
						CHANNELS 6 Xposition Yposition Zposition Xrotation Yrotation Zrotation
						JOINT Junyuan_V1:Solving:Neck1
						{
							OFFSET 0.000000 -7.643246 -0.668695
							CHANNELS 6 Xposition Yposition Zposition Xrotation Yrotation Zrotation
							JOINT Junyuan_V1:Solving:Head
							{
								OFFSET 0.000000 -7.555870 -1.332303
								CHANNELS 6 Xposition Yposition Zposition Xrotation Yrotation Zrotation
								JOINT Junyuan_V1:Solving:HeadEnd
								{
									OFFSET 0.000000 -9.728081 0.000002
									CHANNELS 6 Xposition Yposition Zposition Xrotation Yrotation Zrotation
									End Site
									{
										OFFSET 0.000000 -9.728081 0.000002
									}
								}
							}
						}
					}
					JOINT Junyuan_V1:Solving:RightShoulder
					{
						OFFSET 0.000000 -8.097195 -5.270916
						CHANNELS 6 Xposition Yposition Zposition Xrotation Yrotation Zrotation
						JOINT Junyuan_V1:Solving:RightArm
						{
							OFFSET -20.762394 -0.000008 0.000000
							CHANNELS 6 Xposition Yposition Zposition Xrotation Yrotation Zrotation
							JOINT Junyuan_V1:Solving:RightForeArm
							{
								OFFSET -29.048946 -0.000008 0.000000
								CHANNELS 6 Xposition Yposition Zposition Xrotation Yrotation Zrotation
								JOINT Junyuan_V1:Solving:RightHand
								{
									OFFSET -22.031235 -0.000008 0.000000
									CHANNELS 6 Xposition Yposition Zposition Xrotation Yrotation Zrotation
									JOINT Junyuan_V1:Solving:RightHandThumb1
									{
										OFFSET -3.579254 2.890213 -2.661497
										CHANNELS 6 Xposition Yposition Zposition Xrotation Yrotation Zrotation
										End Site
										{
											OFFSET -5.229485 0.000000 -5.277840
										}
									}
									JOINT Junyuan_V1:Solving:RightHandMiddle1
									{
										OFFSET -9.544678 -0.000004 0.061184
										CHANNELS 6 Xposition Yposition Zposition Xrotation Yrotation Zrotation
										End Site
										{
											OFFSET -7.429878 -0.000004 0.000000
										}
									}
								}
							}
						}
					}
					JOINT Junyuan_V1:Solving:LeftShoulder
					{
						OFFSET 0.000000 -8.097195 -5.270916
						CHANNELS 6 Xposition Yposition Zposition Xrotation Yrotation Zrotation
						JOINT Junyuan_V1:Solving:LeftArm
						{
							OFFSET 20.762394 -0.000008 0.000000
							CHANNELS 6 Xposition Yposition Zposition Xrotation Yrotation Zrotation
							JOINT Junyuan_V1:Solving:LeftForeArm
							{
								OFFSET 29.048946 -0.000008 0.000000
								CHANNELS 6 Xposition Yposition Zposition Xrotation Yrotation Zrotation
								JOINT Junyuan_V1:Solving:LeftHand
								{
									OFFSET 22.031235 -0.000008 0.000000
									CHANNELS 6 Xposition Yposition Zposition Xrotation Yrotation Zrotation
									JOINT Junyuan_V1:Solving:LeftHandThumb1
									{
										OFFSET 3.579254 2.890213 -2.661497
										CHANNELS 6 Xposition Yposition Zposition Xrotation Yrotation Zrotation
										End Site
										{
											OFFSET 5.229485 0.000000 -5.277840
										}
									}
									JOINT Junyuan_V1:Solving:LeftHandMiddle1
									{
										OFFSET 9.544678 -0.000004 0.061184
										CHANNELS 6 Xposition Yposition Zposition Xrotation Yrotation Zrotation
										End Site
										{
											OFFSET 7.429878 -0.000004 0.000000
										}
									}
								}
							}
						}
					}
				}
			}
		}
	}
	JOINT Junyuan_V1:Solving:RightUpLeg
	{
		OFFSET -10.825166 0.000000 0.000000
		CHANNELS 6 Xposition Yposition Zposition Xrotation Yrotation Zrotation
		JOINT Junyuan_V1:Solving:RightLeg
		{
			OFFSET 0.000000 43.678444 -0.000006
			CHANNELS 6 Xposition Yposition Zposition Xrotation Yrotation Zrotation
			JOINT Junyuan_V1:Solving:RightFoot
			{
				OFFSET 0.000000 36.488441 -0.000006
				CHANNELS 6 Xposition Yposition Zposition Xrotation Yrotation Zrotation
				JOINT Junyuan_V1:Solving:RightForeFoot
				{
					OFFSET 0.000000 3.967834 -0.000000
					CHANNELS 6 Xposition Yposition Zposition Xrotation Yrotation Zrotation
					JOINT Junyuan_V1:Solving:RightToeBase
					{
						OFFSET 0.000000 0.000000 -15.539299
						CHANNELS 6 Xposition Yposition Zposition Xrotation Yrotation Zrotation
						JOINT Junyuan_V1:Solving:RightToeBaseEnd
						{
							OFFSET 0.000000 0.000000 -3.486985
							CHANNELS 6 Xposition Yposition Zposition Xrotation Yrotation Zrotation
							End Site
							{
								OFFSET 0.000000 -3.486992 0.000000
							}
						}
					}
				}
			}
		}
	}
	JOINT Junyuan_V1:Solving:LeftUpLeg
	{
		OFFSET 10.825166 0.000000 0.000000
		CHANNELS 6 Xposition Yposition Zposition Xrotation Yrotation Zrotation
		JOINT Junyuan_V1:Solving:LeftLeg
		{
			OFFSET 0.000000 43.678444 -0.000006
			CHANNELS 6 Xposition Yposition Zposition Xrotation Yrotation Zrotation
			JOINT Junyuan_V1:Solving:LeftFoot
			{
				OFFSET 0.000000 36.488441 -0.000006
				CHANNELS 6 Xposition Yposition Zposition Xrotation Yrotation Zrotation
				JOINT Junyuan_V1:Solving:LeftForeFoot
				{
					OFFSET 0.000000 3.967834 -0.000000
					CHANNELS 6 Xposition Yposition Zposition Xrotation Yrotation Zrotation
					JOINT Junyuan_V1:Solving:LeftToeBase
					{
						OFFSET 0.000000 0.000000 -15.539299
						CHANNELS 6 Xposition Yposition Zposition Xrotation Yrotation Zrotation
						JOINT Junyuan_V1:Solving:LeftToeBaseEnd
						{
							OFFSET 0.000000 0.000000 -3.974441
							CHANNELS 6 Xposition Yposition Zposition Xrotation Yrotation Zrotation
							End Site
							{
								OFFSET 0.000000 -3.974442 0.000000
							}
						}
					}
				}
			}
		}
	}
}
MOTION
Frames: 4
Frame Time: 0.041667
26.352036 -19.022100 -82.782265 48.514892 -172.653126 2.019392 0.000007 -11.180199 2.228558 14.463462 1.508632 0.971969 0.000001 -8.683001 1.531040 17.626348 -0.030589 0.847111 0.000002 -8.783385 0.768443 27.200844 -4.603648 1.475918 0.000002 -8.816953 -0.000004 -9.143421 -0.486230 -2.313312 0.000002 -11.336085 -1.133606 -36.092553 -14.299325 17.705706 0.000002 -7.643231 -0.668691 17.213745 11.720127 -24.155340 0.000001 -7.555886 -1.332315 -0.902717 -0.453168 2.330176 -0.000004 -9.728081 0.000003 0.000003 -0.000001 0.000000 -0.000001 -8.097214 -5.270911 0.000006 8.313229 26.325226 -20.762402 -0.000007 -0.000004 -80.493151 -11.872209 -84.954842 -29.048937 -0.000007 0.000012 -44.340485 -18.298591 -17.057171 -22.031258 -0.000023 -0.000009 3.775485 -8.705846 23.556197 -3.579266 2.890230 -2.661489 0.000003 0.000003 0.000005 -9.544694 -0.000003 0.061190 0.000005 0.000003 -0.000001 0.000001 -8.097206 -5.270912 -0.000003 -13.750859 -19.391863 20.762390 -0.000009 -0.000002 -95.411930 29.975443 92.388841 29.048937 -0.000020 -0.000005 -54.559179 12.064699 16.365944 22.031219 -0.000013 0.000006 2.637627 5.949619 -23.962387 3.579275 2.890208 -2.661520 -0.000000 -0.000005 -0.000003 9.544703 -0.000004 0.061157 0.000001 -0.000003 0.000003 -10.825167 0.000010 -0.000001 -74.683508 13.347422 15.975659 0.000009 43.678455 -0.000003 41.090739 -0.000002 -0.000004 0.000001 36.488430 -0.000003 -4.764511 13.470023 -5.658478 -0.000005 3.967827 0.000006 0.000000 0.000008 -0.000001 -0.000011 -0.000003 -15.539306 8.519971 -0.000000 0.000001 -0.000011 -0.000008 -3.486973 -0.000001 0.000005 0.000001 10.825173 0.000017 -0.000005 -75.933201 -9.152880 -17.765329 0.000001 43.678459 0.000006 38.669799 0.000002 0.000001 0.000003 36.488422 -0.000015 1.889470 -2.180955 4.024610 -0.000000 3.967827 -0.000003 0.000001 -0.000002 0.000000 0.000001 -0.000006 -15.539308 -1.554296 -0.000001 -0.000000 0.000003 -0.000008 -3.974447 -0.000000 -0.000001 0.000000 
26.936377 -19.034960 -82.638397 48.546922 -172.916935 1.944363 -0.000008 -11.180218 2.228572 14.446327 1.576920 0.961630 -0.000002 -8.682980 1.531038 17.630067 -0.033223 0.828861 -0.000003 -8.783398 0.768454 27.188562 -4.631272 1.388752 0.000002 -8.816943 0.000024 -9.113446 -0.496421 -2.283335 0.000003 -11.336074 -1.133626 -36.218314 -14.268952 17.643603 -0.000004 -7.643273 -0.668702 17.391863 11.781316 -24.166391 0.000004 -7.555884 -1.332313 -0.916904 -0.449248 2.340250 0.000003 -9.728088 0.000014 0.000003 -0.000000 0.000001 0.000002 -8.097202 -5.270926 0.000009 8.333870 26.335693 -20.762390 -0.000010 -0.000008 -80.454868 -11.885829 -84.995420 -29.048948 -0.000010 -0.000005 -44.251375 -18.419140 -17.109115 -22.031246 -0.000016 -0.000014 3.752287 -8.675866 23.498363 -3.579274 2.890211 -2.661509 0.000005 -0.000000 0.000004 -9.544683 -0.000001 0.061183 0.000002 0.000001 0.000002 0.000005 -8.097195 -5.270926 0.000001 -13.796687 -19.393082 20.762390 -0.000001 -0.000004 -95.272751 29.821344 92.330012 29.048935 -0.000008 -0.000009 -54.598323 12.063184 16.386450 22.031248 -0.000007 0.000002 2.590908 5.898152 -23.766570 3.579270 2.890214 -2.661482 0.000001 -0.000002 -0.000009 9.544699 -0.000001 0.061185 0.000001 -0.000001 -0.000002 -10.825173 0.000008 -0.000010 -74.084924 12.860222 16.062054 0.000005 43.678448 -0.000007 39.662741 -0.000003 -0.000001 0.000002 36.488441 -0.000004 -4.730494 13.790004 -5.158733 -0.000002 3.967827 0.000002 0.000000 0.000002 -0.000001 -0.000009 0.000000 -15.539315 8.152452 0.000005 -0.000001 -0.000001 -0.000008 -3.486989 0.000000 0.000002 -0.000001 10.825164 -0.000007 0.000000 -75.984024 -9.134968 -17.927064 -0.000001 43.678455 -0.000002 38.717016 0.000005 0.000001 0.000005 36.488419 -0.000012 1.947381 -2.000555 4.252242 0.000004 3.967827 0.000003 0.000001 0.000002 0.000000 0.000007 -0.000008 -15.539299 -1.478098 0.000000 -0.000000 0.000002 -0.000008 -3.974444 -0.000000 -0.000003 -0.000000 
27.487776 -19.068474 -82.470169 48.668066 -173.248226 1.747593 0.000000 -11.180195 2.228559 14.433262 1.594538 0.944614 0.000003 -8.683007 1.531069 17.751819 -0.026472 0.781195 -0.000002 -8.783394 0.768466 27.212507 -4.532260 1.380488 0.000000 -8.816951 -0.000014 -9.143799 -0.461513 -2.305256 0.000004 -11.336080 -1.133605 -36.261638 -14.232484 17.644561 0.000000 -7.643249 -0.668689 17.473331 11.823624 -24.188145 -0.000006 -7.555874 -1.332297 -0.967512 -0.453919 2.372702 0.000001 -9.728088 -0.000020 0.000002 0.000000 0.000000 0.000002 -8.097206 -5.270917 0.000007 8.365942 26.362285 -20.762386 -0.000005 -0.000013 -80.417432 -11.947062 -85.018650 -29.048937 -0.000010 -0.000001 -44.103553 -18.549493 -17.135608 -22.031233 -0.000009 -0.000012 3.728784 -8.625538 23.487286 -3.579259 2.890209 -2.661492 0.000001 0.000005 0.000005 -9.544695 -0.000004 0.061186 0.000001 0.000002 -0.000002 0.000006 -8.097202 -5.270917 -0.000001 -13.837018 -19.371707 20.762392 -0.000017 -0.000008 -95.151488 29.595841 92.299413 29.048944 -0.000008 0.000003 -54.685199 12.065613 16.439435 22.031235 -0.000017 -0.000001 2.651436 6.001486 -23.889773 3.579269 2.890219 -2.661483 0.000006 -0.000005 -0.000001 9.544687 0.000002 0.061195 0.000003 0.000000 0.000002 -10.825165 0.000007 -0.000004 -73.409295 12.389641 16.289562 0.000007 43.678448 0.000006 38.178408 0.000001 0.000003 0.000008 36.488422 0.000005 -4.731280 14.212879 -4.849029 0.000005 3.967827 0.000007 -0.000000 0.000000 -0.000001 0.000013 -0.000009 -15.539298 7.794086 -0.000005 0.000001 0.000001 -0.000007 -3.486993 0.000002 -0.000003 0.000000 10.825170 -0.000001 0.000012 -75.885273 -9.211837 -17.963240 -0.000001 43.678444 0.000006 38.805067 0.000001 0.000001 0.000005 36.488438 0.000001 1.872605 -1.760581 4.482748 0.000000 3.967827 0.000007 0.000001 -0.000003 -0.000000 0.000004 -0.000017 -15.539297 -1.162280 -0.000005 -0.000000 0.000004 -0.000008 -3.974442 -0.000001 -0.000004 -0.000000 
28.034296 -19.081945 -82.275475 48.738215 -173.627657 1.509845 -0.000000 -11.180204 2.228553 14.419113 1.620782 0.910309 0.000002 -8.683011 1.531040 17.788666 -0.016186 0.674908 0.000003 -8.783388 0.768476 27.185343 -4.389369 1.475303 -0.000004 -8.816949 -0.000014 -9.102255 -0.409989 -2.368484 -0.000001 -11.336072 -1.133603 -36.501986 -14.167575 17.470552 0.000002 -7.643258 -0.668679 17.780191 11.840704 -24.029903 -0.000006 -7.555849 -1.332323 -1.036017 -0.457886 2.423222 -0.000004 -9.728111 -0.000019 0.000004 -0.000000 0.000000 0.000005 -8.097210 -5.270915 0.000009 8.453295 26.366210 -20.762402 -0.000002 -0.000013 -80.444329 -11.967975 -85.075088 -29.048948 -0.000016 -0.000008 -43.957363 -18.585621 -17.083603 -22.031237 -0.000026 -0.000018 3.651280 -8.514234 23.316630 -3.579267 2.890215 -2.661484 0.000005 0.000003 0.000003 -9.544691 -0.000009 0.061179 -0.000001 0.000001 0.000002 0.000003 -8.097214 -5.270915 -0.000000 -13.826541 -19.376861 20.762390 -0.000014 -0.000001 -94.970399 29.426398 92.224957 29.048929 0.000008 0.000007 -54.753737 12.119689 16.547701 22.031237 -0.000018 0.000006 2.629238 5.960973 -23.854352 3.579267 2.890211 -2.661492 0.000004 0.000007 -0.000003 9.544679 -0.000004 0.061200 -0.000001 0.000003 0.000001 -10.825171 -0.000010 -0.000002 -72.882107 12.060451 16.611085 0.000010 43.678448 0.000002 36.764569 0.000001 0.000002 -0.000003 36.488430 -0.000006 -4.693260 14.588046 -4.539262 -0.000001 3.967827 0.000009 -0.000003 -0.000001 -0.000000 0.000009 -0.000001 -15.539300 7.579738 0.000001 -0.000002 -0.000001 -0.000016 -3.486972 0.000000 0.000000 -0.000000 10.825167 -0.000008 -0.000007 -75.906891 -9.261865 -17.938339 0.000003 43.678444 0.000010 38.950018 0.000003 0.000001 0.000000 36.488430 -0.000009 1.918350 -1.635992 4.665969 0.000004 3.967827 0.000009 0.000002 -0.000000 0.000000 0.000002 -0.000012 -15.539297 -1.180494 0.000004 -0.000000 0.000006 -0.000008 -3.974445 -0.000001 -0.000005 -0.000000 
